<svg xmlns="http://www.w3.org/2000/svg" width="262" height="72" preserveAspectRatio="none"><path xmlns="http://www.w3.org/2000/svg" fill-rule="evenodd" d="M5.434 9.434 8 12H1V5l2.958 2.958A8.3 8.3 0 0 1 9.32 6c3.459 0 6.424 2.11 7.68 5l-2 1c-.937-2.39-3.13-3.92-5.68-4a6.57 6.57 0 0 0-3.886 1.434M30.566 9.434 28 12h7V5l-2.958 2.958A8.3 8.3 0 0 0 26.68 6C23.22 6 20.256 8.11 19 11l2 1c.937-2.39 3.13-3.92 5.68-4 1.469.053 2.82.579 3.886 1.434M50 16H40v-3h-3V8.006C37 6.898 37.895 6 38.994 6h12.012C52.107 6 53 6.887 53 8.006V13h-3zm-8-5h6v3h-6zm-2-9h10v3H40zm9 6h2v2h-2zM66 2h-8c-.55 0-1 .45-1 1v3c0 .55.45 1 1 1h8c.55 0 1-.45 1-1V5h1v3h-7v8h2v-6h7V4h-3V3c0-.55-.45-1-1-1M74.27 4.55l5.16 5.15L77 15h2.5l1.64-3.58L85.73 16 87 14.73 75.55 3.27zM77.82 3l2 2h1.76l-.55 1.21 1.71 1.71L84.08 5H88V3zM103 6.5c0-1.93-1.57-3.5-3.5-3.5H94v12h6.25c1.79 0 3.25-1.46 3.25-3.25 0-1.3-.77-2.41-1.87-2.93.83-.58 1.37-1.44 1.37-2.32M99 5c.83 0 1.5.67 1.5 1.5S99.83 8 99 8h-2V5zm-2 8v-3h2.5c.83 0 1.5.67 1.5 1.5s-.67 1.5-1.5 1.5zM115 3v2h2.58l-3.66 8H111v2h8v-2h-2.58l3.66-8H123V3z"/><path xmlns="http://www.w3.org/2000/svg" d="M135 15c2.76 0 5-2.24 5-5V3h-2v7c0 1.75-1.5 3-3 3s-3-1.242-3-3V3h-2v7c0 2.76 2.24 5 5 5m-6 1v2h12v-2z"/><path xmlns="http://www.w3.org/2000/svg" fill="#010101" fill-rule="evenodd" d="M148.888 6.06q-.001-.685.296-1.252.296-.57.836-.968.538-.399 1.279-.619A5.7 5.7 0 0 1 152.926 3q.912 0 1.654.251c.495.169.919.401 1.271.705q.529.449.814 1.073.286.62.285 1.357h-2.257a1.9 1.9 0 0 0-.11-.637 1.26 1.26 0 0 0-.333-.506 1.5 1.5 0 0 0-.562-.327 2.4 2.4 0 0 0-.8-.116c-.296 0-.55.034-.772.098a1.5 1.5 0 0 0-.54.27 1.14 1.14 0 0 0-.431.9q0 .54.551.907l.065.042c.262.172.739.483 1.239.983h-3s-.786-.624-.824-.691q-.287-.534-.288-1.249M160 9h-14v2h7.219c.135.053.3.105.412.154.278.123.495.255.653.382q.235.198.319.424.083.232.082.514 0 .265-.101.491a1 1 0 0 1-.311.394 1.6 1.6 0 0 1-.533.258 2.7 2.7 0 0 1-.761.094q-.49-.001-.889-.097a1.8 1.8 0 0 1-.679-.312 1.45 1.45 0 0 1-.439-.558c-.105-.229-.19-.574-.19-.744h-2.232c0 .252.06.688.176 1.025a3.15 3.15 0 0 0 1.223 1.598q.42.294.915.487c.33.131.671.229 1.035.289.36.064.724.094 1.083.094q.902 0 1.636-.207a3.9 3.9 0 0 0 1.252-.592 2.7 2.7 0 0 0 .803-.953c.19-.378.28-.806.28-1.286q0-.676-.232-1.211a2 2 0 0 0-.127-.252L160 11z"/><path xmlns="http://www.w3.org/2000/svg" fill-rule="evenodd" d="M172 1h-2l-4.5 12h2l1.12-3h4.75l1.12 3h2zm-2.62 7L171 3.67 172.62 8z"/><path xmlns="http://www.w3.org/2000/svg" fill="#000" fill-rule="evenodd" d="M194.5 8.87s-1.5 1.62-1.5 2.62c0 .83.67 1.5 1.5 1.5s1.5-.67 1.5-1.5c0-.99-1.5-2.62-1.5-2.62m-1.79-2.08L185.91 0l-1.06 1.06 1.59 1.59-4.15 4.14a.996.996 0 0 0 0 1.41l4.5 4.5c.2.2.45.3.71.3s.51-.1.71-.29l4.5-4.5c.39-.39.39-1.03 0-1.42m-8.5.21 3.29-3.29L190.79 7z"/><path xmlns="http://www.w3.org/2000/svg" fill-rule="evenodd" d="M201 6h-2V2h7v2h-5zm7-2V2h7v4h-2V4zm0 10h5v-2h2v4h-7zm-9-2h2v2h5v2h-7zm0-4h4V6l3 3-3 3v-2h-4zm9 1 3-3v2h4v2h-4v2zM218 16h10v-2h-10zm10-10h-10v2h10zm-10-4v2h14V2zm0 10h14v-2h-14zM238 14v2h10v-2zm0-8v2h10V6zm-2 6h14v-2h-14zm0-10v2h14V2zM6 34h10v-2H6zm-4-4h14v-2H2zm0-10v2h14v-2zm4 6h10v-2H6zM21 20v2h12v-2zm2.5 7H26v7h2v-7h2.5L27 23.5zM48.5 21H46v-3h-2v3h-2.5l3.5 3.5zM39 26v2h12v-2zm2.5 7H44v3h2v-3h2.5L45 29.5zM66.5 27H64v-7h-2v7h-2.5l3.5 3.5zM57 32v2h12v-2zM88 21H74v2h14zM74 33h4v-2h-4zm11.5-7H74v2h11.75c.83 0 1.5.67 1.5 1.5s-.67 1.5-1.5 1.5H83v-2l-3 3 3 3v-2h2.5c1.93 0 3.5-1.57 3.5-3.5S87.43 26 85.5 26M92 21v1l6 6v5l2-1v-4l6-6v-1zm4 3h6l-3 3zM122 20h-10v1.8l5.5 5.2-5.5 5.2V34h10v-2h-6.9l4.9-5-4.9-5h6.9zM131 25l4 4 4-4zM151 31l4-4-4-4zM163.9 27c0-1.16.94-2.1 2.1-2.1h4V23h-4c-2.21 0-4 1.79-4 4s1.79 4 4 4h4v-1.9h-4a2.1 2.1 0 0 1-2.1-2.1m12.1-4h-4v1.9h4a2.1 2.1 0 1 1 0 4.2h-4V31h4c2.21 0 4-1.79 4-4s-1.79-4-4-4m-8 5h6v-2h-6zM196 19c.55 0 1 .45 1 1v14c0 .55-.45 1-1 1h-14c-.55 0-1-.45-1-1V20c0-.55.45-1 1-1zm-13 2v12h12V21zm4 10h-2v-5h2zm3 0h-2v-8h2zm3 0h-2v-4h2z"/><g xmlns="http://www.w3.org/2000/svg" fill="none" fill-rule="evenodd"><path stroke="#000" d="M199.5 21.5h15v12h-15z"/><path fill="#000" d="M204 26h1v7h-1z"/><path fill="#D8D8D8" d="M200 22h14v3h-14z"/><path fill="#000" d="M200 25h14v1h-14zm0 4h14v1h-14z"/></g><path xmlns="http://www.w3.org/2000/svg" fill-rule="evenodd" d="M220 25.5c-.83 0-1.5.67-1.5 1.5s.67 1.5 1.5 1.5 1.5-.67 1.5-1.5-.67-1.5-1.5-1.5m10 0c-.83 0-1.5.67-1.5 1.5s.67 1.5 1.5 1.5 1.5-.67 1.5-1.5-.67-1.5-1.5-1.5m-5 0c-.83 0-1.5.67-1.5 1.5s.67 1.5 1.5 1.5 1.5-.67 1.5-1.5-.67-1.5-1.5-1.5M244 26v-4h-2v4h-4v2h4v4h2v-4h4v-2zM2 38v14h14V38zm6 12H4v-4h4zm0-6H4v-4h4zm6 6h-4v-4h4zm0-6h-4v-4h4z"/><g xmlns="http://www.w3.org/2000/svg" fill-rule="evenodd"><path d="M20 52h2v-2h-2zm2-11h-2v2h2zm1 11h2v-2h-2zm8-14h-2v2h2zm-9 0h-2v2h2zm3 0h-2v2h2zm-5 11h2v-2h-2zm9 3h2v-2h-2zm3-14v2h2v-2zm0 5h2v-2h-2zm0 9h2v-2h-2zm0-3h2v-2h-2z" opacity=".54"/><path d="M28 38h-2v6h-6v2h6v6h2v-6h6v-2h-6z"/></g><g xmlns="http://www.w3.org/2000/svg" fill-rule="evenodd"><path d="M44 52h2v-2h-2zm-3-12h2v-2h-2zm3 9h2v-2h-2zm-3 3h2v-2h-2zm-3-9h2v-2h-2zm0 9h2v-2h-2zm0-12h2v-2h-2zm0 9h2v-2h-2zm12 0h2v-2h-2zm0 3h2v-2h-2zm0-9h2v-2h-2zm0-5v2h2v-2zm-6 2h2v-2h-2zm3 0h2v-2h-2zm-3 3h2v-2h-2zm3 9h2v-2h-2z" opacity=".54"/><path d="M38 46h14v-2H38z"/></g><g xmlns="http://www.w3.org/2000/svg" fill-rule="evenodd"><path d="M59 52h2v-2h-2zm-3-9h2v-2h-2zm0-3h2v-2h-2zm3 6h2v-2h-2zm0-6h2v-2h-2zm-3 12h2v-2h-2zm0-6h2v-2h-2zm0 3h2v-2h-2zm12-11v2h2v-2zm0 8h2v-2h-2zm0 6h2v-2h-2zm0-9h2v-2h-2zm0 6h2v-2h-2zm-3 3h2v-2h-2zm0-6h2v-2h-2zm0-6h2v-2h-2z" opacity=".54"/><path d="M62 52h2V38h-2z"/></g><g xmlns="http://www.w3.org/2000/svg" fill-rule="evenodd"><path d="M82 41h-2v2h2zm3 3h-2v2h2zm-3 0h-2v2h2zm0 3h-2v2h2zm-3-3h-2v2h2z" opacity=".54"/><path d="M74 38h14v14H74zm12 12V40H76v10z"/></g><g xmlns="http://www.w3.org/2000/svg" fill-rule="evenodd"><path d="M98 46h2v-2h-2zm0-3h2v-2h-2zm0 6h2v-2h-2zm0 3h2v-2h-2zm-3 0h2v-2h-2zm0-12h2v-2h-2zm0 6h2v-2h-2zm9 6h2v-2h-2zm0-6h2v-2h-2zm0 3h2v-2h-2zm0-6h2v-2h-2zm-6-3h2v-2h-2zm6-2v2h2v-2zm-3 14h2v-2h-2zm0-6h2v-2h-2zm0-6h2v-2h-2z" opacity=".54"/><path d="M92 52h2V38h-2z"/></g><g xmlns="http://www.w3.org/2000/svg" fill-rule="evenodd"><path d="M113 46h2v-2h-2zm-3 6h2v-2h-2zm6 0h2v-2h-2zm0-3h2v-2h-2zm-3 3h2v-2h-2zm-3-3h2v-2h-2zm6-3h2v-2h-2zm-6-3h2v-2h-2zm0 3h2v-2h-2zm12 0h2v-2h-2zm0 3h2v-2h-2zm0-6h2v-2h-2zm-6 0h2v-2h-2zm3 9h2v-2h-2zm0-6h2v-2h-2zm3 6h2v-2h-2z" opacity=".54"/><path d="M110 38v2h14v-2z"/></g><g xmlns="http://www.w3.org/2000/svg" fill-rule="evenodd"><path d="M128 40h2v-2h-2zm3 0h2v-2h-2zm0 6h2v-2h-2zm0 6h2v-2h-2zm-3-9h2v-2h-2zm0 3h2v-2h-2zm0 6h2v-2h-2zm0-3h2v-2h-2zm9-3h2v-2h-2zm-3 6h2v-2h-2zm3 0h2v-2h-2zm-3-12h2v-2h-2zm3 0h2v-2h-2zm-3 9h2v-2h-2zm0-6h2v-2h-2zm0 3h2v-2h-2z" opacity=".54"/><path d="M140 38v14h2V38z"/></g><g xmlns="http://www.w3.org/2000/svg" fill-rule="evenodd"><path d="M151 38h-2v2h2zm3 6h-2v2h2zm0 3h-2v2h2zm3-3h-2v2h2zm-6 0h-2v2h2zm6-6h-2v2h2zm-3 3h-2v2h2zm0-3h-2v2h2zm-6 9h-2v2h2zm10 2h2v-2h-2zm0-6h2v-2h-2zm0 3h2v-2h-2zm0-8v2h2v-2zm-10 0h-2v2h2zm0 3h-2v2h2zm0 3h-2v2h2z" opacity=".54"/><path d="M146 52h14v-2h-14z"/></g><path xmlns="http://www.w3.org/2000/svg" fill-rule="evenodd" d="M170 52h2v-2h-2zm-3-6h2v-2h-2zm0-6h2v-2h-2zm3 9h2v-2h-2zm-3 3h2v-2h-2zm-3-9h2v-2h-2zm0 9h2v-2h-2zm0-12h2v-2h-2zm0 6h2v-2h-2zm6 0h2v-2h-2zm-6 3h2v-2h-2zm12 0h2v-2h-2zm0 3h2v-2h-2zm0-6h2v-2h-2zm0-3h2v-2h-2zm0-5v2h2v-2zm-6 2h2v-2h-2zm3 0h2v-2h-2zm-3 3h2v-2h-2zm3 9h2v-2h-2zm0-6h2v-2h-2z" opacity=".54"/><path xmlns="http://www.w3.org/2000/svg" fill-rule="evenodd" d="m190.5 39.62-6.5 6.5V49h2.88l6.5-6.5zm5.35.4c.2-.2.2-.51 0-.71l-2.17-2.17c-.2-.2-.51-.2-.71 0l-1.35 1.36 2.88 2.88zM200 40h14v2h-14zm0 4h6v2h-6zm0 4h2v2h-2zm8-4h6v2h-6zm-4 4h2v2h-2zm4 0h2v2h-2zm4 0h2v2h-2zM227 41l-4 4 4 4zM246.53 42.53l-1.06-1.06-2.47 2.47-2.47-2.47-1.06 1.06 2.47 2.47-2.47 2.47 1.06 1.06 2.47-2.47 2.47 2.47 1.06-1.06-2.47-2.47zM12.44 60.44 9 63.88l-3.44-3.44L4.5 61.5 9 66l4.5-4.5zM27 60l-4.5 4.5 1.06 1.06L27 62.12l3.44 3.44 1.06-1.06zM47.56 66.44 44.12 63l3.44-3.44-1.06-1.06L42 63l4.5 4.5zM66 63l-4.5-4.5-1.06 1.06L63.88 63l-3.44 3.44 1.06 1.06zM75 62h8.875l-3.935-3.94L81 57l6 6-6 6-1.06-1.06L83.875 64H75zM105 62h-8.875l3.935-3.94L99 57l-6 6 6 6 1.06-1.06L96.125 64H105z"/></svg>